<svg id="Groupe_1061" data-name="Groupe 1061" xmlns="http://www.w3.org/2000/svg" xmlns:xlink="http://www.w3.org/1999/xlink" width="252.42" height="64" viewBox="0 0 252.42 64">
  <defs>
    <clipPath id="clip-path">
      <rect id="Rectangle_1748" data-name="Rectangle 1748" width="252.42" height="64" fill="none"/>
    </clipPath>
  </defs>
  <g id="Groupe_1057" data-name="Groupe 1057" clip-path="url(#clip-path)">
    <path id="Tracé_1127" data-name="Tracé 1127" d="M64,32A32,32,0,1,1,32,0,32,32,0,0,1,64,32" fill="#fff"/>
    <path id="Tracé_1128" data-name="Tracé 1128" d="M54.185,44.526a1.441,1.441,0,0,1,1.11-2.659L59.54,43.64A1.441,1.441,0,0,1,58.43,46.3Zm2.306,10.846a1.454,1.454,0,0,1-2.032-.007c-.007,0-4.872-4.915-4.872-4.915a1.439,1.439,0,1,1,2.046-2.025l4.872,4.907h0A1.444,1.444,0,0,1,56.491,55.372Zm-.62-18.319a1.441,1.441,0,0,1,0-2.883h7.207a1.441,1.441,0,0,1,0,2.883Zm4.439-10.9a1.441,1.441,0,0,1-.771,1.888L55.295,29.81a1.382,1.382,0,0,1-.555.115,1.444,1.444,0,0,1-.555-2.775l4.245-1.772a1.438,1.438,0,0,1,1.881.778ZM49.587,21.234l4.872-4.915a1.442,1.442,0,0,1,2.047,2.032l-4.872,4.908h0a1.439,1.439,0,1,1-2.046-2.025Zm-6.493-3.7,1.759-4.281h0a1.442,1.442,0,0,1,2.667,1.1L45.76,18.625a1.442,1.442,0,0,1-2.667-1.1Zm-.88,6.551a3.573,3.573,0,0,1,2.443.959,3.948,3.948,0,0,1,2.883,1.917,3.327,3.327,0,0,1,2.565,3.2,2.594,2.594,0,0,1-.029.41,3.858,3.858,0,0,1,1.369,2.919,3.8,3.8,0,0,1-.5,1.881,3.495,3.495,0,0,1-.007,3.943,3.313,3.313,0,0,1,.043.548,3.488,3.488,0,0,1-2.219,3.221,3.662,3.662,0,0,1-2.624,2.27,4.013,4.013,0,0,1-3.38,1.795,4.061,4.061,0,0,1-4.144-3.856l-.036-15.826a3.564,3.564,0,0,1,3.64-3.38ZM32.089,55.79a1.441,1.441,0,1,1,0-2.883h10.09a1.441,1.441,0,0,1,0,2.883Zm8.648,4.324A1.446,1.446,0,0,1,39.3,61.556H34.972a1.441,1.441,0,1,1,0-2.883H39.3a1.445,1.445,0,0,1,1.441,1.441M35.692,9.667a1.441,1.441,0,0,1,2.883,0v6.947a1.441,1.441,0,1,1-2.883,0Zm-8.158,2.8a1.443,1.443,0,0,1,1.881.785l1.758,4.281a1.441,1.441,0,0,1-2.666,1.1l-1.759-4.281A1.443,1.443,0,0,1,27.535,12.464Zm-.808,14.493A3.948,3.948,0,0,1,29.61,25.04a3.632,3.632,0,0,1,6.083,2.421l-.036,15.826a4.059,4.059,0,0,1-4.144,3.856,4.012,4.012,0,0,1-3.38-1.795,3.659,3.659,0,0,1-2.623-2.27,3.489,3.489,0,0,1-2.219-3.221,3.417,3.417,0,0,1,.043-.547,3.495,3.495,0,0,1-.007-3.943,3.806,3.806,0,0,1-.5-1.881,3.856,3.856,0,0,1,1.369-2.919,2.594,2.594,0,0,1-.029-.41,3.327,3.327,0,0,1,2.565-3.2ZM17.762,53.332l4.872-4.907h0A1.439,1.439,0,1,1,24.68,50.45l-4.872,4.915a1.442,1.442,0,0,1-2.047-2.032ZM15.838,46.3a1.441,1.441,0,1,1-1.11-2.659l4.245-1.773a1.441,1.441,0,0,1,1.11,2.659Zm1.939-29.987h0a1.435,1.435,0,0,1,2.032.008l4.872,4.915a1.435,1.435,0,0,1-.007,2.032,1.457,1.457,0,0,1-2.04-.007l-4.872-4.907h0a1.445,1.445,0,0,1,.015-2.04Zm-3.82,9.844a1.442,1.442,0,0,1,1.881-.779l4.245,1.773a1.441,1.441,0,0,1-1.11,2.659l-4.245-1.765a1.44,1.44,0,0,1-.771-1.888ZM11.19,34.891H18.4a1.441,1.441,0,0,1,0,2.883H11.19a1.441,1.441,0,1,1,0-2.883" transform="translate(-5.133 -4.332)"/>
    <path id="Tracé_1129" data-name="Tracé 1129" d="M76.762,64.122c0,.493.627.977,1.266.977A1.106,1.106,0,0,0,79.1,64.39a1.44,1.44,0,0,1,1.434-.993h.006a.754.754,0,0,0,.824-.671A1.442,1.442,0,0,1,82.7,61.3a.663.663,0,0,0,.664-.6.506.506,0,0,0-.06-.234,1.441,1.441,0,0,1,.365-1.774.679.679,0,0,0,.261-.515.7.7,0,0,0-.4-.608,1.441,1.441,0,0,1-.143-2.454.963.963,0,0,0,.439-.79,1.016,1.016,0,0,0-.718-.934,1.441,1.441,0,0,1-.686-2.194.341.341,0,0,0,.067-.2.478.478,0,0,0-.515-.412l-.074,0a1.443,1.443,0,0,1-1.513-1.133.99.99,0,0,0-1-.723l-.08.005h0a1.447,1.447,0,0,1-1.291-.661.626.626,0,0,0-.534-.271c-.4,0-.76.309-.76.5l.034,15.819Z" transform="translate(-40.403 -25.172)" fill="#fff"/>
    <path id="Tracé_1130" data-name="Tracé 1130" d="M43.635,57.566a.7.7,0,0,0-.4.608.676.676,0,0,0,.261.515,1.441,1.441,0,0,1,.365,1.774.506.506,0,0,0-.06.234.662.662,0,0,0,.664.6,1.442,1.442,0,0,1,1.345,1.427.748.748,0,0,0,.8.674h.064a1.48,1.48,0,0,1,1.4.991,1.105,1.105,0,0,0,1.069.71c.639,0,1.266-.483,1.266-.977,0,0,.034-15.826.034-15.826,0-.184-.355-.493-.76-.493a.627.627,0,0,0-.534.271,1.458,1.458,0,0,1-1.291.661,1.008,1.008,0,0,0-1.079.718,1.444,1.444,0,0,1-1.513,1.134l-.076,0a.479.479,0,0,0-.514.412.347.347,0,0,0,.067.2,1.441,1.441,0,0,1-.686,2.194,1.015,1.015,0,0,0-.718.934.963.963,0,0,0,.439.789,1.441,1.441,0,0,1-.143,2.454Z" transform="translate(-22.767 -25.172)" fill="#fff"/>
    <path id="Tracé_1131" data-name="Tracé 1131" d="M161.848,71.438,155.125,48.57c-.189-.663.142-.994.757-.994h7.339a.859.859,0,0,1,.947.8l2.226,10.889c.095.331.378.331.473,0l2.414-10.842a.937.937,0,0,1,.994-.8h6.439a.929.929,0,0,1,.994.8l2.6,10.937c.095.331.379.331.473,0l2.6-10.984a.929.929,0,0,1,.994-.8l7.339.095c.615,0,.947.331.757.994l-6.865,22.773a1.026,1.026,0,0,1-1.042.757h-7.386a.973.973,0,0,1-.994-.757l-2.51-8.9c-.094-.331-.331-.284-.426.048L171.27,71.39a.937.937,0,0,1-.994.805h-7.386a1.026,1.026,0,0,1-1.042-.757" transform="translate(-81.657 -25.052)" fill="#fff"/>
    <path id="Tracé_1132" data-name="Tracé 1132" d="M234.584,29.446a5.115,5.115,0,0,1,10.226,0,5.115,5.115,0,0,1-10.226,0m.663,29.685V36.311a.822.822,0,0,1,.9-.9h7.1a.822.822,0,0,1,.9.9v22.82a.822.822,0,0,1-.9.9h-7.1a.822.822,0,0,1-.9-.9" transform="translate(-123.527 -12.888)" fill="#fff"/>
    <path id="Tracé_1133" data-name="Tracé 1133" d="M262.183,61.818V30.476a.822.822,0,0,1,.9-.9h7.1a.822.822,0,0,1,.9.9V43.59c0,.331.284.426.473.142l3.741-5.066a1.267,1.267,0,0,1,1.089-.569h8.1c.757,0,.994.473.568,1.089l-5.824,7.907a.51.51,0,0,0-.047.521L286,61.675c.284.616,0,1.042-.663,1.042H277.9a1.064,1.064,0,0,1-1.042-.71l-3.693-8.759c-.095-.284-.379-.331-.521-.047l-1.42,2.367a1.059,1.059,0,0,0-.142.473v5.776a.822.822,0,0,1-.9.9h-7.1a.822.822,0,0,1-.9-.9" transform="translate(-138.06 -15.574)" fill="#fff"/>
    <path id="Tracé_1134" data-name="Tracé 1134" d="M317.083,29.446a5.115,5.115,0,0,1,10.226,0,5.115,5.115,0,0,1-10.226,0m.662,29.685V36.311a.823.823,0,0,1,.9-.9h7.1a.822.822,0,0,1,.9.9v22.82a.822.822,0,0,1-.9.9h-7.1a.822.822,0,0,1-.9-.9" transform="translate(-166.969 -12.888)" fill="#fff"/>
    <path id="Tracé_1135" data-name="Tracé 1135" d="M349,61.959l-9.28-31.39c-.189-.662.143-.994.758-.994h7.67a.93.93,0,0,1,.995.757l3.882,14.962c.1.331.379.331.473,0l3.6-14.914a.967.967,0,0,1,.994-.8h5.54a.93.93,0,0,1,.994.757l3.787,14.962c.1.331.379.331.474,0l3.5-14.914a.929.929,0,0,1,.995-.8h7.669c.615,0,.9.379.758.994l-8.286,31.39a.929.929,0,0,1-.994.757h-7.244a.9.9,0,0,1-.994-.805L361.027,46.24c-.1-.331-.379-.379-.426,0l-2.888,15.671a.859.859,0,0,1-.947.805h-6.723A1.027,1.027,0,0,1,349,61.959" transform="translate(-178.862 -15.574)" fill="#fff"/>
    <path id="Tracé_1136" data-name="Tracé 1136" d="M429.781,29.446a5.115,5.115,0,0,1,10.226,0,5.115,5.115,0,0,1-10.226,0m.663,29.685V36.311a.822.822,0,0,1,.9-.9h7.1a.822.822,0,0,1,.9.9v22.82a.822.822,0,0,1-.9.9h-7.1a.822.822,0,0,1-.9-.9" transform="translate(-226.313 -12.888)" fill="#fff"/>
    <path id="Tracé_1137" data-name="Tracé 1137" d="M457.679,61.818V30.476a.822.822,0,0,1,.9-.9h7.1a.822.822,0,0,1,.9.9V61.818a.822.822,0,0,1-.9.9h-7.1a.822.822,0,0,1-.9-.9" transform="translate(-241.004 -15.574)" fill="#fff"/>
    <path id="Tracé_1138" data-name="Tracé 1138" d="M497.744,29.575h7.1a.822.822,0,0,1,.9.9V61.817a.822.822,0,0,1-.9.9h-7.1a.822.822,0,0,1-.9-.9v-.995c0-.331-.237-.378-.426-.095a6.267,6.267,0,0,1-5.35,2.368c-4.167,0-7.86-2.841-9.28-7.481a18.578,18.578,0,0,1-.71-5.3,16.51,16.51,0,0,1,1.041-6.06,9.858,9.858,0,0,1,9.327-6.533,5.949,5.949,0,0,1,4.971,1.988c.237.237.426.142.426-.19V30.475a.822.822,0,0,1,.9-.9m-.9,20.879a7.565,7.565,0,0,0-.758-3.645,2.719,2.719,0,0,0-2.462-1.468,2.662,2.662,0,0,0-2.509,1.563,7.9,7.9,0,0,0-.71,3.551,7.625,7.625,0,0,0,.71,3.456,2.739,2.739,0,0,0,2.509,1.562,2.7,2.7,0,0,0,2.51-1.61,7.411,7.411,0,0,0,.71-3.409" transform="translate(-253.326 -15.574)" fill="#fff"/>
  </g>
</svg>
