<svg xmlns="http://www.w3.org/2000/svg" width="62" height="62" viewBox="0 0 62 62">
  <g id="Groupe_1065" data-name="Groupe 1065" transform="translate(-582 -2445)">
    <circle id="Ellipse_193" data-name="Ellipse 193" cx="31" cy="31" r="31" transform="translate(582 2445)" fill="#fff"/>
    <g id="noun-github-4289652_1_" data-name="noun-github-4289652 (1)" transform="translate(595.347 2457.138)">
      <path id="Tracé_1114" data-name="Tracé 1114" d="M263.764,164.214a10.513,10.513,0,0,0-2.341-6.573,10.6,10.6,0,0,0-.456-6.393,1.412,1.412,0,0,0-.889-.816c-.571-.2-2.732-.563-7.136,2.291h0a24.419,24.419,0,0,0-11.621,0c-4.518-2.919-6.867-2.447-7.339-2.308a1.428,1.428,0,0,0-.889.832,10.6,10.6,0,0,0-.473,6.377,9.962,9.962,0,0,0-2.332,6.622c0,9.02,5.162,11.744,9.892,12.706a7.621,7.621,0,0,0-.5,1.851.818.818,0,0,0,0,.2v2.5c-4.306.359-5.227-2.161-5.317-2.447h0a1.9,1.9,0,0,0-.074-.2,7.217,7.217,0,0,0-4.078-3.629,1.427,1.427,0,0,0-.905,2.708,4.313,4.313,0,0,1,2.316,1.981c.571,1.851,2.9,4.779,8.041,4.452v2.349a1.427,1.427,0,1,0,2.855,0v-7.608a4.079,4.079,0,0,1,1.035-2.227,1.419,1.419,0,0,0-.815-2.447c-4.975-.579-9.574-2.218-9.574-10.251h0a7.016,7.016,0,0,1,2.088-5.236,1.516,1.516,0,0,0,.327-1.517,7.069,7.069,0,0,1-.09-4.322,12.4,12.4,0,0,1,4.819,2.259,1.461,1.461,0,0,0,1.256.171,20.987,20.987,0,0,1,11.181,0,1.453,1.453,0,0,0,1.256-.171,12.814,12.814,0,0,1,4.616-2.243,7.214,7.214,0,0,1-.106,4.363,1.412,1.412,0,0,0,.278,1.386,7.945,7.945,0,0,1,2.145,5.309c0,8.016-4.836,9.68-9.574,10.251a1.419,1.419,0,0,0-.685,2.553,4.156,4.156,0,0,1,1.093,3.262v6.459a1.427,1.427,0,1,0,2.854,0v-6.459a8.7,8.7,0,0,0-.612-3.319c3.833-.815,9.754-3.335,9.754-12.722Z" transform="translate(-228.333 -150.301)"/>
    </g>
  </g>
</svg>
