<svg id="Groupe_1063" data-name="Groupe 1063" xmlns="http://www.w3.org/2000/svg" xmlns:xlink="http://www.w3.org/1999/xlink" width="153.818" height="39" viewBox="0 0 153.818 39">
  <defs>
    <clipPath id="clip-path">
      <rect id="Rectangle_1748" data-name="Rectangle 1748" width="153.818" height="39" fill="none"/>
    </clipPath>
  </defs>
  <g id="Groupe_1057" data-name="Groupe 1057" clip-path="url(#clip-path)">
    <path id="Tracé_1127" data-name="Tracé 1127" d="M39,19.5A19.5,19.5,0,1,1,19.5,0,19.5,19.5,0,0,1,39,19.5" fill="#fff"/>
    <path id="Tracé_1128" data-name="Tracé 1128" d="M36.827,30.346a.878.878,0,0,1,.676-1.62l2.587,1.08a.878.878,0,0,1-.677,1.62Zm1.405,6.609a.886.886,0,0,1-1.238,0s-2.969-2.995-2.969-2.995a.877.877,0,1,1,1.247-1.234l2.969,2.991h0A.88.88,0,0,1,38.232,36.955Zm-.378-11.163a.878.878,0,0,1,0-1.757h4.392a.878.878,0,0,1,0,1.757Zm2.705-6.64a.878.878,0,0,1-.47,1.151L37.5,21.379a.842.842,0,0,1-.338.07.88.88,0,0,1-.338-1.691l2.587-1.08a.876.876,0,0,1,1.146.474Zm-6.535-3,2.969-2.995A.879.879,0,0,1,38.241,14.4l-2.969,2.991h0a.877.877,0,1,1-1.247-1.234ZM30.068,13.9l1.072-2.609h0a.878.878,0,0,1,1.625.668l-1.072,2.609a.878.878,0,0,1-1.625-.668Zm-.536,3.992a2.177,2.177,0,0,1,1.489.584,2.406,2.406,0,0,1,1.757,1.168,2.027,2.027,0,0,1,1.563,1.95,1.581,1.581,0,0,1-.018.25,2.351,2.351,0,0,1,.834,1.779,2.316,2.316,0,0,1-.308,1.146,2.13,2.13,0,0,1,0,2.4,2.019,2.019,0,0,1,.026.334,2.125,2.125,0,0,1-1.352,1.963,2.231,2.231,0,0,1-1.6,1.383,2.446,2.446,0,0,1-2.06,1.094,2.475,2.475,0,0,1-2.525-2.35l-.022-9.644a2.172,2.172,0,0,1,2.218-2.06ZM23.362,37.21a.878.878,0,1,1,0-1.757h6.148a.878.878,0,0,1,0,1.757Zm5.27,2.635a.881.881,0,0,1-.878.878H25.119a.878.878,0,1,1,0-1.757h2.635a.88.88,0,0,1,.878.878M25.558,9.1a.878.878,0,0,1,1.757,0v4.234a.878.878,0,1,1-1.757,0Zm-4.971,1.7a.879.879,0,0,1,1.146.479L22.8,13.9a.878.878,0,0,1-1.625.668l-1.072-2.609A.879.879,0,0,1,20.587,10.808Zm-.492,8.832a2.406,2.406,0,0,1,1.757-1.168,2.213,2.213,0,0,1,3.707,1.475l-.022,9.644a2.474,2.474,0,0,1-2.525,2.349,2.445,2.445,0,0,1-2.06-1.094,2.23,2.23,0,0,1-1.6-1.383A2.126,2.126,0,0,1,18,27.5a2.082,2.082,0,0,1,.026-.333,2.13,2.13,0,0,1,0-2.4,2.319,2.319,0,0,1-.307-1.146,2.35,2.35,0,0,1,.834-1.779,1.581,1.581,0,0,1-.018-.25,2.027,2.027,0,0,1,1.563-1.95ZM14.632,35.713,17.6,32.722h0a.877.877,0,1,1,1.247,1.234l-2.969,2.995a.879.879,0,0,1-1.247-1.238Zm-1.172-4.286a.878.878,0,1,1-.677-1.62l2.587-1.08a.878.878,0,0,1,.676,1.62Zm1.181-18.273h0a.874.874,0,0,1,1.238,0l2.969,2.995a.874.874,0,0,1,0,1.238.888.888,0,0,1-1.243,0L14.632,14.4h0a.88.88,0,0,1,.009-1.243Zm-2.328,6a.878.878,0,0,1,1.146-.475l2.587,1.08a.878.878,0,0,1-.676,1.62L12.783,20.3a.877.877,0,0,1-.47-1.151Zm-1.687,5.322h4.392a.878.878,0,0,1,0,1.757H10.626a.878.878,0,1,1,0-1.757" transform="translate(-6.936 -5.853)"/>
    <path id="Tracé_1129" data-name="Tracé 1129" d="M76.749,57.747c0,.3.382.6.772.6a.674.674,0,0,0,.651-.432.877.877,0,0,1,.874-.6h0a.46.46,0,0,0,.5-.409.879.879,0,0,1,.819-.87.4.4,0,0,0,.4-.367.308.308,0,0,0-.037-.143.878.878,0,0,1,.223-1.081.414.414,0,0,0,.159-.314.426.426,0,0,0-.243-.37.878.878,0,0,1-.087-1.5.587.587,0,0,0,.268-.481.619.619,0,0,0-.438-.569.878.878,0,0,1-.418-1.337.208.208,0,0,0,.041-.122.291.291,0,0,0-.314-.251l-.045,0a.88.88,0,0,1-.922-.691.6.6,0,0,0-.609-.441l-.049,0h0a.882.882,0,0,1-.787-.4.381.381,0,0,0-.325-.165c-.247,0-.463.188-.463.3l.021,9.64Z" transform="translate(-54.593 -34.012)" fill="#fff"/>
    <path id="Tracé_1130" data-name="Tracé 1130" d="M43.479,53.753a.426.426,0,0,0-.243.37.412.412,0,0,0,.159.314.878.878,0,0,1,.223,1.081.308.308,0,0,0-.037.143.4.4,0,0,0,.4.367.879.879,0,0,1,.819.87.456.456,0,0,0,.486.411h.039a.9.9,0,0,1,.855.6.674.674,0,0,0,.651.432c.389,0,.772-.294.772-.6,0,0,.021-9.644.021-9.644,0-.112-.216-.3-.463-.3a.382.382,0,0,0-.325.165.889.889,0,0,1-.787.4.614.614,0,0,0-.657.438.88.88,0,0,1-.922.691l-.046,0a.292.292,0,0,0-.313.251.212.212,0,0,0,.041.122.878.878,0,0,1-.418,1.337.619.619,0,0,0-.438.569.587.587,0,0,0,.268.481.878.878,0,0,1-.087,1.5Z" transform="translate(-30.763 -34.013)" fill="#fff"/>
    <path id="Tracé_1131" data-name="Tracé 1131" d="M159.2,62.117l-4.1-13.935c-.115-.4.087-.606.462-.606h4.472a.523.523,0,0,1,.577.49l1.356,6.636c.058.2.23.2.288,0l1.471-6.607a.571.571,0,0,1,.606-.49h3.924a.566.566,0,0,1,.606.49l1.587,6.665c.058.2.231.2.288,0l1.587-6.693a.566.566,0,0,1,.606-.49l4.472.058c.375,0,.577.2.462.606l-4.183,13.878a.625.625,0,0,1-.635.462h-4.5a.593.593,0,0,1-.606-.462l-1.529-5.424c-.057-.2-.2-.173-.259.029l-1.212,5.366a.571.571,0,0,1-.606.491h-4.5a.625.625,0,0,1-.635-.462" transform="translate(-110.335 -33.851)" fill="#fff"/>
    <path id="Tracé_1132" data-name="Tracé 1132" d="M234.584,27.5a3.117,3.117,0,1,1,3.116,3.029,2.916,2.916,0,0,1-3.116-3.029m.4,18.09V31.688a.5.5,0,0,1,.548-.548h4.328a.5.5,0,0,1,.548.548V45.594a.5.5,0,0,1-.548.548h-4.328a.5.5,0,0,1-.548-.548" transform="translate(-166.909 -17.414)" fill="#fff"/>
    <path id="Tracé_1133" data-name="Tracé 1133" d="M262.183,49.223v-19.1a.5.5,0,0,1,.548-.548h4.328a.5.5,0,0,1,.548.548v7.992c0,.2.173.26.288.087l2.279-3.087a.772.772,0,0,1,.664-.346h4.934c.462,0,.606.288.346.664l-3.549,4.818a.311.311,0,0,0-.029.318l4.155,8.568c.173.375,0,.635-.4.635h-4.529a.648.648,0,0,1-.635-.433L268.876,44c-.058-.173-.231-.2-.317-.029l-.865,1.442a.645.645,0,0,0-.087.288v3.52a.5.5,0,0,1-.548.548h-4.328a.5.5,0,0,1-.548-.548" transform="translate(-186.545 -21.044)" fill="#fff"/>
    <path id="Tracé_1134" data-name="Tracé 1134" d="M317.083,27.5a3.117,3.117,0,1,1,3.116,3.029,2.916,2.916,0,0,1-3.116-3.029m.4,18.09V31.688a.5.5,0,0,1,.548-.548h4.328a.5.5,0,0,1,.548.548V45.594a.5.5,0,0,1-.548.548h-4.328a.5.5,0,0,1-.548-.548" transform="translate(-225.607 -17.414)" fill="#fff"/>
    <path id="Tracé_1135" data-name="Tracé 1135" d="M345.355,49.309,339.7,30.181c-.115-.4.087-.606.462-.606h4.674a.567.567,0,0,1,.606.461l2.365,9.117c.058.2.231.2.288,0l2.193-9.088a.59.59,0,0,1,.606-.49h3.376a.566.566,0,0,1,.606.461l2.308,9.117c.058.2.231.2.289,0l2.135-9.088a.566.566,0,0,1,.606-.49h4.674c.375,0,.548.231.462.606L360.3,49.309a.566.566,0,0,1-.606.462H355.28a.549.549,0,0,1-.606-.491l-1.991-9.549c-.058-.2-.231-.231-.26,0l-1.76,9.549a.523.523,0,0,1-.577.491h-4.1a.626.626,0,0,1-.635-.462" transform="translate(-241.677 -21.043)" fill="#fff"/>
    <path id="Tracé_1136" data-name="Tracé 1136" d="M429.781,27.5a3.117,3.117,0,1,1,3.116,3.029,2.916,2.916,0,0,1-3.116-3.029m.4,18.09V31.688a.5.5,0,0,1,.548-.548h4.327a.5.5,0,0,1,.548.548V45.594a.5.5,0,0,1-.548.548h-4.327a.5.5,0,0,1-.548-.548" transform="translate(-305.793 -17.414)" fill="#fff"/>
    <path id="Tracé_1137" data-name="Tracé 1137" d="M457.679,49.223v-19.1a.5.5,0,0,1,.548-.548h4.328a.5.5,0,0,1,.548.548v19.1a.5.5,0,0,1-.548.548h-4.328a.5.5,0,0,1-.548-.548" transform="translate(-325.642 -21.044)" fill="#fff"/>
    <path id="Tracé_1138" data-name="Tracé 1138" d="M491.234,29.575h4.328a.5.5,0,0,1,.548.548v19.1a.5.5,0,0,1-.548.548h-4.328a.5.5,0,0,1-.548-.548v-.606c0-.2-.144-.231-.26-.058A3.819,3.819,0,0,1,487.167,50a6.008,6.008,0,0,1-5.655-4.559,11.321,11.321,0,0,1-.433-3.231,10.061,10.061,0,0,1,.634-3.693,6.007,6.007,0,0,1,5.684-3.981,3.625,3.625,0,0,1,3.029,1.212c.144.144.26.087.26-.116v-5.51a.5.5,0,0,1,.548-.548M490.686,42.3a4.61,4.61,0,0,0-.462-2.221,1.657,1.657,0,0,0-1.5-.895,1.622,1.622,0,0,0-1.529.952,4.817,4.817,0,0,0-.433,2.164A4.646,4.646,0,0,0,487.2,44.4a1.669,1.669,0,0,0,1.529.952,1.648,1.648,0,0,0,1.529-.981,4.516,4.516,0,0,0,.433-2.077" transform="translate(-342.292 -21.043)" fill="#fff"/>
  </g>
</svg>
